<svg xmlns="http://www.w3.org/2000/svg" viewBox="0 0 200 200" width="200" height="200">
  <rect x="0" y="0" width="200" height="200" rx="40" ry="40" fill="black"/>
  <line x1="50" y1="100" x2="100" y2="50" stroke="white" stroke-width="4"/>
  <line x1="100" y1="50" x2="150" y2="100" stroke="white" stroke-width="4"/>
  <line x1="150" y1="100" x2="100" y2="150" stroke="white" stroke-width="4"/>
  <line x1="100" y1="150" x2="50" y2="100" stroke="white" stroke-width="4"/>
  <line x1="70" y1="50" x2="100" y2="50" stroke="white" stroke-width="4"/>
  <line x1="70" y1="150" x2="100" y2="150" stroke="white" stroke-width="4"/>
  <line x1="150" y1="70" x2="150" y2="100" stroke="white" stroke-width="4"/>
  <line x1="50" y1="70" x2="50" y2="100" stroke="white" stroke-width="4"/>
  <circle cx="50" cy="100" r="5" fill="white"/>
  <circle cx="100" cy="50" r="5" fill="white"/>
  <circle cx="150" cy="100" r="5" fill="white"/>
  <circle cx="100" cy="150" r="5" fill="white"/>
  <polygon points="60,70 80,70 80,90" fill="white"/>
  <polygon points="120,70 140,70 120,90" fill="white"/>
  <polygon points="120,110 140,130 120,130" fill="white"/>
  <polygon points="60,130 80,130 80,110" fill="white"/>
</svg>