<svg xmlns="http://www.w3.org/2000/svg" viewBox="0 0 500 200" width="500" height="200">
  <!-- 原favicon部分 -->
  <g transform="translate(20, 0)">
    <line x1="50" y1="100" x2="100" y2="50" stroke="currentColor" stroke-width="4"/>
    <line x1="100" y1="50" x2="150" y2="100" stroke="currentColor" stroke-width="4"/>
    <line x1="150" y1="100" x2="100" y2="150" stroke="currentColor" stroke-width="4"/>
    <line x1="100" y1="150" x2="50" y2="100" stroke="currentColor" stroke-width="4"/>
    <line x1="70" y1="50" x2="100" y2="50" stroke="currentColor" stroke-width="4"/>
    <line x1="70" y1="150" x2="100" y2="150" stroke="currentColor" stroke-width="4"/>
    <line x1="150" y1="70" x2="150" y2="100" stroke="currentColor" stroke-width="4"/>
    <line x1="50" y1="70" x2="50" y2="100" stroke="currentColor" stroke-width="4"/>
    <circle cx="50" cy="100" r="5" fill="currentColor"/>
    <circle cx="100" cy="50" r="5" fill="currentColor"/>
    <circle cx="150" cy="100" r="5" fill="currentColor"/>
    <circle cx="100" cy="150" r="5" fill="currentColor"/>
    <polygon points="65,75 75,75 75,85" fill="currentColor"/>
    <polygon points="125,85 135,75 125,75" fill="currentColor"/>
    <polygon points="125,115 135,125 125,125" fill="currentColor"/>
    <polygon points="65,115 65,125 75,115" fill="currentColor"/>
  </g>
  <!-- 文字部分 -->
  <g transform="translate(200, 0)">
    <!-- Powerful -->
    <text x="0" y="90" font-family="Arial, sans-serif" font-weight="bold" font-size="36" fill="currentColor">POWERFUL</text>
    <!-- Power -->
    <text x="0" y="150" font-family="Arial, sans-serif" font-weight="bold" font-size="55" fill="var(--logo-text-color-dark)">POWER</text>
    <!-- 装饰线 -->
    <line x1="-10" y1="100" x2="220" y2="100" stroke="var(--logo-line-color)" stroke-width="4"/>
    <line x1="-10" y1="50" x2="220" y2="50" stroke="var(--logo-line-color-bold)" stroke-width="4"/>
  </g>
</svg>